<svg width="87" height="54" viewBox="0 0 87 54" fill="none" xmlns="http://www.w3.org/2000/svg">
<g clip-path="url(#clip0_1_5)">
<path d="M0.123047 2.64062V2.04297C1.45898 1.73828 2.66016 1.39844 3.72656 1.02344C4.79297 0.648438 5.36719 0.460938 5.44922 0.460938C5.47266 0.53125 5.48438 0.601561 5.48438 0.671874V11.377C5.78906 10.8145 6.24609 10.2812 6.85547 9.77734C7.93359 8.89844 9.17578 8.45898 10.582 8.45898C12.3047 8.45898 13.7754 9.18555 14.9941 10.6387C16.2129 12.0918 16.8223 13.9785 16.8223 16.2988C16.8223 18.7832 16.0312 20.9102 14.4492 22.6797C12.8672 24.4492 10.7871 25.334 8.20898 25.334C6.9082 25.334 5.63086 25.0762 4.37695 24.5605C3.12305 24.0449 2.49609 23.5293 2.49609 23.0137V4.43359C2.49609 3.75391 2.40234 3.27344 2.21484 2.99219C2.02734 2.69922 1.59375 2.55273 0.914062 2.55273L0.123047 2.64062ZM5.41406 22.4336C5.51953 23.043 5.97656 23.4824 6.78516 23.752C7.59375 24.0098 8.30273 24.1387 8.91211 24.1387C10.5527 24.1387 11.7656 23.5234 12.5508 22.293C13.3477 21.0625 13.7461 19.5742 13.7461 17.8281C13.7461 16.082 13.377 14.4707 12.6387 12.9941C11.9004 11.5059 10.7051 10.7617 9.05273 10.7617C8.2207 10.7617 7.40625 11.0195 6.60938 11.5352C5.8125 12.0391 5.41406 12.6836 5.41406 13.4688V22.4336ZM18.1582 24.4199C19.2363 24.3262 19.9512 24.1387 20.3027 23.8574C20.6543 23.5645 20.8301 22.9492 20.8301 22.0117V14.084C20.8301 12.9238 20.7188 12.0977 20.4961 11.6055C20.2852 11.1016 19.8926 10.8496 19.3184 10.8496C19.2012 10.8496 19.043 10.8672 18.8438 10.9023C18.6562 10.9258 18.457 10.9609 18.2461 11.0078V10.4277C18.9141 10.1934 19.5996 9.95312 20.3027 9.70703C21.0059 9.46094 21.4922 9.28516 21.7617 9.17969C22.3477 8.95703 22.9512 8.70508 23.5723 8.42383C23.6543 8.42383 23.7012 8.45312 23.7129 8.51172C23.7363 8.57031 23.748 8.69336 23.748 8.88086V11.7637C24.498 10.7207 25.2188 9.90625 25.9102 9.32031C26.6133 8.73438 27.3398 8.44141 28.0898 8.44141C28.6875 8.44141 29.1738 8.62305 29.5488 8.98633C29.9238 9.33789 30.1113 9.7832 30.1113 10.3223C30.1113 10.8027 29.9648 11.207 29.6719 11.5352C29.3906 11.8633 29.0332 12.0273 28.5996 12.0273C28.1543 12.0273 27.7031 11.8223 27.2461 11.4121C26.8008 11.002 26.4492 10.7969 26.1914 10.7969C25.7812 10.7969 25.2773 11.1309 24.6797 11.7988C24.082 12.4551 23.7832 13.1348 23.7832 13.8379V21.7656C23.7832 22.7734 24.0176 23.4766 24.4863 23.875C24.9551 24.2617 25.7344 24.4434 26.8242 24.4199V25H18.1582V24.4199ZM35.5605 8.72266V19.9727C35.5605 20.7695 35.6719 21.4082 35.8945 21.8887C36.3281 22.7793 37.125 23.2246 38.2852 23.2246C39.082 23.2246 39.8613 22.9609 40.623 22.4336C41.0566 22.1406 41.4961 21.7363 41.9414 21.2207V11.5879C41.9414 10.6855 41.7656 10.0938 41.4141 9.8125C41.0625 9.53125 40.3594 9.36133 39.3047 9.30273V8.72266H44.9824V21.0977C44.9824 21.8945 45.123 22.4453 45.4043 22.75C45.6973 23.043 46.3066 23.1719 47.2324 23.1367V23.6289C46.5879 23.8047 46.1133 23.9395 45.8086 24.0332C45.5039 24.1152 44.9941 24.2734 44.2793 24.5078C43.9746 24.6133 43.3066 24.8652 42.2754 25.2637C42.2168 25.2637 42.1816 25.2344 42.1699 25.1758C42.1582 25.1289 42.1523 25.0703 42.1523 25V22.1699C41.3555 23.1191 40.6289 23.8223 39.9727 24.2793C38.9766 24.9824 37.9219 25.334 36.8086 25.334C35.7891 25.334 34.8281 24.9707 33.9258 24.2441C33.0117 23.5293 32.5547 22.3281 32.5547 20.6406V11.5176C32.5547 10.5801 32.3555 9.95312 31.957 9.63672C31.6992 9.4375 31.1484 9.29688 30.3047 9.21484V8.72266H35.5605ZM57.1465 8.79297V10.0586H53.5605L53.5254 20.1836C53.5254 21.0742 53.6016 21.748 53.7539 22.2051C54.0352 23.0137 54.5859 23.418 55.4062 23.418C55.8281 23.418 56.1914 23.3184 56.4961 23.1191C56.8125 22.9199 57.1699 22.6035 57.5684 22.1699L58.0254 22.5566L57.6387 23.084C57.0293 23.9043 56.3848 24.4844 55.7051 24.8242C55.0254 25.1641 54.3691 25.334 53.7363 25.334C52.3535 25.334 51.416 24.7188 50.9238 23.4883C50.6543 22.8203 50.5195 21.8945 50.5195 20.7109V10.0586H48.6035C48.5449 10.0234 48.498 9.98828 48.4629 9.95312C48.4395 9.91797 48.4277 9.87109 48.4277 9.8125C48.4277 9.69531 48.4512 9.60742 48.498 9.54883C48.5566 9.47852 48.7266 9.32617 49.0078 9.0918C49.8164 8.42383 50.3965 7.88477 50.748 7.47461C51.1113 7.05273 51.9551 5.95117 53.2793 4.16992C53.4316 4.16992 53.5195 4.18164 53.543 4.20508C53.5781 4.22852 53.5957 4.31641 53.5957 4.46875V8.79297H57.1465Z" fill="black"/>
<path d="M1.86328 47.4629H2.44336C2.71289 48.7988 3.07617 49.8242 3.5332 50.5391C4.35352 51.8516 5.55469 52.5078 7.13672 52.5078C8.01562 52.5078 8.70703 52.2676 9.21094 51.7871C9.72656 51.2949 9.98438 50.6621 9.98438 49.8887C9.98438 49.3965 9.83789 48.9219 9.54492 48.4648C9.25195 48.0078 8.73633 47.5625 7.99805 47.1289L6.0293 46.0039C4.58789 45.2305 3.52734 44.4512 2.84766 43.666C2.16797 42.8809 1.82812 41.9551 1.82812 40.8887C1.82812 39.5762 2.29688 38.498 3.23438 37.6543C4.17188 36.8105 5.34961 36.3887 6.76758 36.3887C7.38867 36.3887 8.06836 36.5059 8.80664 36.7402C9.55664 36.9746 9.97852 37.0918 10.0723 37.0918C10.2832 37.0918 10.4355 37.0625 10.5293 37.0039C10.623 36.9453 10.7051 36.8516 10.7754 36.7227H11.1973L11.3203 41.627H10.7754C10.541 40.4902 10.2246 39.6055 9.82617 38.9727C9.09961 37.8008 8.05078 37.2148 6.67969 37.2148C5.85938 37.2148 5.21484 37.4668 4.74609 37.9707C4.27734 38.4746 4.04297 39.0664 4.04297 39.7461C4.04297 40.8242 4.85156 41.7852 6.46875 42.6289L8.78906 43.877C11.2852 45.2363 12.5332 46.8184 12.5332 48.623C12.5332 50.0059 12.0117 51.1367 10.9688 52.0156C9.9375 52.8945 8.58398 53.334 6.9082 53.334C6.20508 53.334 5.4082 53.2168 4.51758 52.9824C3.62695 52.748 3.09961 52.6309 2.93555 52.6309C2.79492 52.6309 2.67188 52.6836 2.56641 52.7891C2.46094 52.8828 2.37891 53 2.32031 53.1406H1.86328V47.4629ZM23.1855 36.793V38.0586H19.5996L19.5645 48.1836C19.5645 49.0742 19.6406 49.748 19.793 50.2051C20.0742 51.0137 20.625 51.418 21.4453 51.418C21.8672 51.418 22.2305 51.3184 22.5352 51.1191C22.8516 50.9199 23.209 50.6035 23.6074 50.1699L24.0645 50.5566L23.6777 51.084C23.0684 51.9043 22.4238 52.4844 21.7441 52.8242C21.0645 53.1641 20.4082 53.334 19.7754 53.334C18.3926 53.334 17.4551 52.7188 16.9629 51.4883C16.6934 50.8203 16.5586 49.8945 16.5586 48.7109V38.0586H14.6426C14.584 38.0234 14.5371 37.9883 14.502 37.9531C14.4785 37.918 14.4668 37.8711 14.4668 37.8125C14.4668 37.6953 14.4902 37.6074 14.5371 37.5488C14.5957 37.4785 14.7656 37.3262 15.0469 37.0918C15.8555 36.4238 16.4355 35.8848 16.7871 35.4746C17.1504 35.0527 17.9941 33.9512 19.3184 32.1699C19.4707 32.1699 19.5586 32.1816 19.582 32.2051C19.6172 32.2285 19.6348 32.3164 19.6348 32.4688V36.793H23.1855ZM29.6191 36.7227V47.9727C29.6191 48.7695 29.7305 49.4082 29.9531 49.8887C30.3867 50.7793 31.1836 51.2246 32.3438 51.2246C33.1406 51.2246 33.9199 50.9609 34.6816 50.4336C35.1152 50.1406 35.5547 49.7363 36 49.2207V39.5879C36 38.6855 35.8242 38.0938 35.4727 37.8125C35.1211 37.5312 34.418 37.3613 33.3633 37.3027V36.7227H39.041V49.0977C39.041 49.8945 39.1816 50.4453 39.4629 50.75C39.7559 51.043 40.3652 51.1719 41.291 51.1367V51.6289C40.6465 51.8047 40.1719 51.9395 39.8672 52.0332C39.5625 52.1152 39.0527 52.2734 38.3379 52.5078C38.0332 52.6133 37.3652 52.8652 36.334 53.2637C36.2754 53.2637 36.2402 53.2344 36.2285 53.1758C36.2168 53.1289 36.2109 53.0703 36.2109 53V50.1699C35.4141 51.1191 34.6875 51.8223 34.0312 52.2793C33.0352 52.9824 31.9805 53.334 30.8672 53.334C29.8477 53.334 28.8867 52.9707 27.9844 52.2441C27.0703 51.5293 26.6133 50.3281 26.6133 48.6406V39.5176C26.6133 38.5801 26.4141 37.9531 26.0156 37.6367C25.7578 37.4375 25.207 37.2969 24.3633 37.2148V36.7227H29.6191ZM50.5723 36.3887C51.4277 36.3887 52.2129 36.5762 52.9277 36.9512C53.3965 37.1973 53.8477 37.5371 54.2812 37.9707V32.3809C54.2812 31.666 54.1992 31.1738 54.0352 30.9043C53.8828 30.6348 53.5078 30.5 52.9102 30.5C52.7695 30.5 52.6465 30.5059 52.541 30.5176C52.4355 30.5293 52.2012 30.5527 51.8379 30.5879V30.0078L53.2793 29.6387C53.8066 29.498 54.334 29.3516 54.8613 29.1992C55.3887 29.0469 55.8516 28.9004 56.25 28.7598C56.4375 28.7012 56.748 28.5898 57.1816 28.4258L57.2871 28.4609L57.252 30.3066C57.2402 30.9746 57.2285 31.666 57.2168 32.3809C57.2051 33.084 57.1992 33.7812 57.1992 34.4727L57.1641 48.834C57.1641 49.5957 57.2578 50.1289 57.4453 50.4336C57.6328 50.7383 58.1309 50.8906 58.9395 50.8906C59.0684 50.8906 59.1973 50.8906 59.3262 50.8906C59.4551 50.8789 59.584 50.8613 59.7129 50.8379V51.418C59.6426 51.4414 58.793 51.7344 57.1641 52.2969L54.4043 53.334L54.2812 53.1758V51.0137C53.625 51.7285 53.0566 52.2383 52.5762 52.543C51.7207 53.0703 50.7305 53.334 49.6055 53.334C47.6133 53.334 45.9961 52.5664 44.7539 51.0312C43.5234 49.4844 42.9082 47.6973 42.9082 45.6699C42.9082 43.127 43.6465 40.9473 45.123 39.1309C46.6113 37.3027 48.4277 36.3887 50.5723 36.3887ZM51.2227 51.4355C52.1367 51.4355 52.875 51.166 53.4375 50.627C54 50.0879 54.2812 49.5781 54.2812 49.0977V41.5566C54.2812 40.0332 53.8711 38.9609 53.0508 38.3398C52.2422 37.707 51.4512 37.3906 50.6777 37.3906C49.2012 37.3906 48.0527 38.0469 47.2324 39.3594C46.4121 40.6602 46.002 42.2656 46.002 44.1758C46.002 46.0625 46.4355 47.7441 47.3027 49.2207C48.1816 50.6973 49.4883 51.4355 51.2227 51.4355ZM63 30.3066C63 29.8027 63.1758 29.3691 63.5273 29.0059C63.8789 28.6426 64.3125 28.4609 64.8281 28.4609C65.332 28.4609 65.7598 28.6426 66.1113 29.0059C66.4746 29.3574 66.6562 29.791 66.6562 30.3066C66.6562 30.8105 66.4746 31.2441 66.1113 31.6074C65.7598 31.959 65.332 32.1348 64.8281 32.1348C64.3125 32.1348 63.8789 31.959 63.5273 31.6074C63.1758 31.2441 63 30.8105 63 30.3066ZM60.75 52.5078C62.0039 52.3906 62.7949 52.1797 63.123 51.875C63.4512 51.5586 63.6152 50.7148 63.6152 49.3438V40.959C63.6152 40.1973 63.5625 39.6699 63.457 39.377C63.2812 38.8965 62.9121 38.6562 62.3496 38.6562C62.2207 38.6562 62.0918 38.668 61.9629 38.6914C61.8457 38.7148 61.4941 38.8086 60.9082 38.9727V38.4277L61.6641 38.1816C63.7148 37.5137 65.1445 37.0098 65.9531 36.6699C66.2812 36.5293 66.4922 36.459 66.5859 36.459C66.6094 36.541 66.6211 36.6289 66.6211 36.7227V49.3438C66.6211 50.6797 66.7793 51.5176 67.0957 51.8574C67.4238 52.1973 68.1562 52.4141 69.293 52.5078V53H60.75V52.5078ZM70.9805 44.8438C70.9805 42.5117 71.7188 40.543 73.1953 38.9375C74.6836 37.3203 76.5938 36.5117 78.9258 36.5117C81.2461 36.5117 83.168 37.2734 84.6914 38.7969C86.2148 40.3203 86.9766 42.3477 86.9766 44.8789C86.9766 47.2109 86.2383 49.2383 84.7617 50.9609C83.2852 52.6836 81.375 53.5449 79.0312 53.5449C76.7812 53.5449 74.877 52.7188 73.3184 51.0664C71.7598 49.4141 70.9805 47.3398 70.9805 44.8438ZM78.4336 37.5664C77.5078 37.5664 76.7051 37.8711 76.0254 38.4805C74.8535 39.5469 74.2676 41.3867 74.2676 44C74.2676 46.0859 74.7363 48.0312 75.6738 49.8359C76.623 51.6406 77.9355 52.543 79.6113 52.543C80.9238 52.543 81.9316 51.9395 82.6348 50.7324C83.3496 49.5254 83.707 47.9434 83.707 45.9863C83.707 43.959 83.2559 42.0488 82.3535 40.2559C81.4512 38.4629 80.1445 37.5664 78.4336 37.5664Z" fill="black"/>
</g>
<defs>
<clipPath id="clip0_1_5">
<rect width="87" height="54" fill="white"/>
</clipPath>
</defs>
</svg>
